<?xml version="1.0" encoding="UTF-8"?>
<svg xmlns="http://www.w3.org/2000/svg" xmlns:xlink="http://www.w3.org/1999/xlink" viewBox="0 0 20 20" width="20px" height="20px">
<g id="surface221043802">
<rect x="0" y="0" width="20" height="20" style="fill:rgb(0%,0%,0%);fill-opacity:1;stroke:none;"/>
<path style=" stroke:none;fill-rule:nonzero;fill:rgb(100%,100%,100%);fill-opacity:1;" d="M 14.078125 0.839844 C 13.480469 0.839844 12.960938 0.960938 12.480469 1.078125 C 13.320312 1.4375 13.839844 1.878906 14.121094 2.078125 C 14.761719 2.640625 15.121094 3.199219 15.761719 4.121094 C 15.878906 4.320312 16.078125 4.601562 16.199219 5.039062 C 16.320312 5.4375 16.320312 5.757812 16.320312 6.078125 C 16.320312 6.519531 16.28125 6.878906 16.238281 7.238281 C 16.199219 7.519531 16.199219 7.640625 16.160156 7.71875 C 16.160156 7.761719 16.160156 7.800781 16.121094 7.878906 C 16.121094 8.078125 16.121094 8.160156 16.160156 8.320312 C 16.160156 8.480469 16.199219 8.640625 16.199219 8.921875 C 16.242188 9.441406 16.242188 9.800781 16.160156 10.238281 L 16.160156 10.398438 C 16.078125 10.757812 16 11.121094 15.800781 11.4375 C 15.839844 11.519531 15.878906 11.558594 15.921875 11.640625 C 16.121094 11.359375 16.28125 11.078125 16.4375 10.761719 C 16.921875 9.878906 17.199219 9.121094 17.398438 8.5625 C 17.757812 7.519531 17.960938 6.757812 18.078125 6.199219 C 18.359375 5 18.398438 4.441406 18.28125 3.800781 C 18.28125 3.601562 18.199219 3.238281 18 2.878906 C 17.558594 2.078125 16.878906 1.71875 16.398438 1.480469 C 16.078125 1.320312 15.238281 0.878906 14.078125 0.839844 Z M 5.414062 1.015625 C 4.953125 1.007812 4.390625 1.058594 3.757812 1.359375 C 3.558594 1.441406 2.960938 1.71875 2.480469 2.359375 C 2.160156 2.757812 1.921875 3.359375 1.800781 4.039062 C 1.679688 4.640625 1.640625 5.359375 1.878906 6.71875 C 2.039062 7.679688 2.199219 8.320312 2.519531 9.640625 C 2.5625 9.800781 2.800781 10.519531 3.320312 12.121094 L 3.359375 12.199219 C 3.441406 12.480469 3.679688 13.078125 4.199219 13.679688 C 4.558594 14.078125 4.878906 14.320312 5.160156 14.320312 L 5.238281 14.320312 C 5.757812 14.320312 6.121094 13.921875 6.4375 13.601562 C 6.4375 13.558594 7.199219 12.640625 7.480469 12.320312 C 7.4375 12.28125 7.359375 12.28125 7.320312 12.238281 C 6.839844 11.960938 6.480469 11.519531 6.199219 11.039062 C 5.71875 10.160156 5.757812 9.28125 5.839844 8.839844 L 5.878906 8.160156 C 5.71875 7.078125 5.761719 6.039062 5.960938 5 C 6.121094 4.121094 6.320312 3.242188 7.039062 2.320312 C 7.28125 2 7.558594 1.71875 7.839844 1.519531 C 7.199219 1.242188 6.519531 1.078125 5.839844 1.039062 C 5.710938 1.03125 5.566406 1.019531 5.414062 1.015625 Z M 10.4375 1.359375 C 10.238281 1.359375 10.039062 1.359375 9.839844 1.398438 C 9.039062 1.558594 8.28125 2 7.679688 2.757812 C 7.078125 3.519531 6.921875 4.238281 6.761719 5.078125 C 6.679688 5.398438 6.679688 5.679688 6.640625 6 C 6.878906 5.800781 7.199219 5.558594 7.679688 5.4375 C 7.960938 5.359375 8.679688 5.121094 9.28125 5.480469 C 9.480469 5.601562 9.757812 5.839844 10.039062 6.519531 C 10.640625 8.199219 10.039062 9.921875 9.960938 10.078125 C 9.921875 10.238281 9.839844 10.359375 9.800781 10.4375 C 9.71875 10.640625 9.640625 10.800781 9.5625 11.121094 C 9.519531 11.398438 9.480469 11.640625 9.480469 11.921875 C 9.601562 11.921875 9.71875 11.960938 9.839844 12.039062 C 10.039062 12.238281 10.078125 12.519531 10.121094 12.640625 C 10.199219 13.28125 10.199219 14.078125 10.199219 14.878906 C 10.199219 15.519531 10.199219 16.121094 10.238281 16.519531 C 10.320312 17.441406 10.601562 18.078125 11 18.398438 C 11.28125 18.640625 11.640625 18.640625 11.839844 18.679688 L 11.921875 18.679688 C 12.519531 18.679688 13.480469 18.28125 13.839844 17.71875 C 14.039062 17.398438 14.121094 17.121094 14.199219 16.71875 C 14.242188 16.480469 14.238281 16.359375 14.28125 16.121094 C 14.28125 16 14.320312 15.800781 14.320312 15.5625 C 14.320312 15.359375 14.359375 15.121094 14.398438 14.839844 C 14.441406 14.160156 14.558594 13.359375 14.601562 12.921875 C 14.640625 12.398438 14.878906 11.960938 15.078125 11.679688 C 14.800781 11.640625 14.519531 11.398438 14.359375 11 C 14.121094 10.558594 14.078125 10.4375 14.039062 10.238281 C 14 10.078125 13.921875 9.878906 13.640625 9.28125 C 13.039062 7.921875 12.960938 7.519531 12.960938 7.199219 C 12.921875 6.757812 12.878906 6.160156 13.359375 5.761719 C 14.078125 5.121094 15 5.160156 15.480469 5.320312 L 15.480469 5.238281 C 15.398438 4.921875 15.242188 4.679688 15.121094 4.519531 C 14.519531 3.601562 14.199219 3.121094 13.640625 2.640625 C 13.398438 2.441406 12.800781 1.960938 11.921875 1.640625 C 11.519531 1.519531 11.039062 1.359375 10.4375 1.359375 Z M 14.859375 6.050781 C 14.570312 6.03125 14.199219 6.078125 13.878906 6.359375 C 13.71875 6.519531 13.71875 6.839844 13.761719 7.121094 C 13.761719 7.320312 13.800781 7.601562 14.398438 8.960938 C 14.679688 9.601562 14.757812 9.800781 14.800781 9.960938 C 14.839844 10.121094 14.878906 10.199219 15.121094 10.640625 C 15.160156 10.71875 15.199219 10.800781 15.28125 10.878906 C 15.359375 10.757812 15.398438 10.558594 15.4375 10.238281 L 15.480469 10.121094 C 15.558594 9.761719 15.519531 9.480469 15.519531 9 C 15.519531 8.757812 15.480469 8.601562 15.480469 8.480469 C 15.4375 8.28125 15.4375 8.121094 15.4375 7.878906 C 15.359375 7.757812 15.359375 7.71875 15.398438 7.640625 C 15.398438 7.558594 15.4375 7.441406 15.480469 7.199219 C 15.519531 6.878906 15.5625 6.601562 15.5625 6.28125 C 15.480469 6.238281 15.441406 6.199219 15.359375 6.160156 C 15.359375 6.160156 15.148438 6.070312 14.859375 6.050781 Z M 8.605469 6.207031 C 8.351562 6.179688 8.058594 6.261719 7.878906 6.320312 C 7.4375 6.441406 7.160156 6.71875 6.960938 6.878906 C 6.839844 7 6.71875 7.121094 6.601562 7.28125 C 6.601562 7.558594 6.640625 7.839844 6.679688 8.121094 L 6.679688 8.160156 L 6.601562 8.960938 C 6.519531 9.320312 6.480469 10 6.878906 10.679688 C 7.078125 11.078125 7.359375 11.398438 7.71875 11.601562 C 7.960938 11.757812 8.28125 11.878906 8.640625 11.960938 C 8.640625 11.679688 8.679688 11.359375 8.71875 11.078125 C 8.800781 10.679688 8.878906 10.480469 9 10.238281 C 9.039062 10.121094 9.078125 10.039062 9.160156 9.921875 C 9.199219 9.800781 9.757812 8.28125 9.238281 6.878906 C 9.121094 6.558594 9 6.359375 8.839844 6.28125 C 8.769531 6.238281 8.6875 6.21875 8.605469 6.207031 Z M 14.476562 6.4375 C 14.578125 6.429688 14.679688 6.4375 14.71875 6.480469 C 14.839844 6.558594 14.679688 6.757812 14.640625 6.800781 C 14.601562 6.839844 14.519531 6.921875 14.398438 6.960938 C 14.242188 7 14.121094 6.878906 14.078125 6.878906 C 14.039062 6.839844 13.921875 6.71875 13.960938 6.601562 C 14 6.519531 14.039062 6.519531 14.199219 6.480469 C 14.257812 6.460938 14.371094 6.441406 14.476562 6.4375 Z M 8.460938 6.765625 C 8.597656 6.757812 8.710938 6.808594 8.800781 6.839844 C 8.921875 6.878906 9.039062 6.921875 9.039062 7 C 9.078125 7.121094 8.960938 7.199219 8.921875 7.238281 C 8.800781 7.359375 8.601562 7.359375 8.601562 7.359375 C 8.398438 7.359375 8.28125 7.242188 8.199219 7.121094 C 8.160156 7.078125 8.121094 7 8.160156 6.921875 C 8.199219 6.839844 8.28125 6.800781 8.320312 6.800781 C 8.371094 6.78125 8.417969 6.769531 8.460938 6.765625 Z M 15.800781 12 C 15.601562 12.28125 15.320312 12.640625 15.28125 13.121094 C 15.28125 13.199219 15.28125 13.242188 15.238281 13.320312 C 15.558594 13.398438 15.839844 13.398438 16.121094 13.359375 C 16.761719 13.28125 17.199219 12.960938 17.28125 12.878906 C 17.558594 12.679688 17.921875 12.28125 17.839844 12.121094 C 17.800781 12.039062 17.679688 12.078125 17.039062 12.121094 C 16.878906 12.121094 16.398438 12.242188 16.078125 12.160156 L 16 12.160156 C 15.921875 12.121094 15.839844 12.078125 15.800781 12 Z M 8.839844 12.800781 C 8.757812 12.921875 8.640625 13 8.5625 13.078125 C 8.242188 13.28125 7.839844 13.441406 7.4375 13.519531 C 7.078125 13.640625 6.878906 13.640625 6.878906 13.761719 C 6.839844 13.921875 7.238281 14.121094 7.4375 14.199219 C 8.121094 14.480469 8.800781 14.320312 8.921875 14.28125 C 9 14.238281 9.199219 14.160156 9.398438 14.039062 C 9.398438 13.601562 9.359375 13.199219 9.320312 12.878906 L 9.320312 12.839844 L 9.28125 12.839844 C 9.160156 12.839844 9 12.839844 8.839844 12.800781 Z M 8.839844 12.800781 "/>
</g>
</svg>
