<?xml version="1.0" encoding="UTF-8"?>
<svg xmlns="http://www.w3.org/2000/svg" xmlns:xlink="http://www.w3.org/1999/xlink" viewBox="0 0 17 17" width="17px" height="17px">
<g id="surface221692130">
<rect x="0" y="0" width="17" height="17" style="fill:rgb(0%,0%,0%);fill-opacity:1;stroke:none;"/>
<path style=" stroke:none;fill-rule:nonzero;fill:rgb(100%,100%,100%);fill-opacity:1;" d="M 5.328125 5.085938 C 5.195312 5.085938 5.058594 5.09375 4.917969 5.109375 L 5 5.367188 C 5.121094 5.351562 5.246094 5.347656 5.371094 5.347656 L 5.414062 5.347656 Z M 6.96875 5.339844 L 6.953125 5.621094 C 7.09375 5.671875 7.230469 5.722656 7.367188 5.777344 L 7.386719 5.488281 C 7.347656 5.46875 7.238281 5.417969 6.96875 5.339844 Z M 3.433594 5.503906 C 3.328125 5.558594 3.214844 5.617188 3.101562 5.6875 L 3.296875 5.988281 C 3.410156 5.917969 3.515625 5.855469 3.628906 5.800781 Z M 5.382812 5.515625 C 5.265625 5.515625 5.140625 5.523438 5.019531 5.535156 C 3.765625 5.648438 2.226562 6.789062 1.328125 8.289062 C 0.425781 9.789062 0.304688 11.066406 0.304688 11.066406 L 3.691406 11.066406 C 3.691406 11.066406 3.042969 8.105469 5.191406 6.90625 C 5.636719 6.6875 7.023438 5.902344 9.277344 7.410156 L 9.445312 7.257812 C 8.808594 6.710938 7.191406 5.503906 5.382812 5.515625 Z M 6.960938 6.6875 L 6.945312 6.957031 C 7.085938 6.960938 7.226562 6.980469 7.367188 7.011719 L 7.386719 6.742188 C 7.238281 6.714844 7.097656 6.695312 6.960938 6.6875 Z M 5.957031 6.792969 C 5.808594 6.832031 5.683594 6.882812 5.578125 6.929688 L 5.675781 7.226562 C 5.800781 7.164062 5.925781 7.113281 6.050781 7.074219 Z M 1.699219 6.808594 C 1.589844 6.917969 1.480469 7.023438 1.382812 7.128906 L 1.714844 7.414062 C 1.804688 7.296875 1.902344 7.183594 2.003906 7.074219 Z M 4.773438 7.445312 C 4.675781 7.535156 4.585938 7.632812 4.507812 7.730469 L 4.714844 8.039062 C 4.789062 7.933594 4.875 7.835938 4.96875 7.734375 Z M 5.390625 8.054688 L 5.390625 11.011719 L 6.113281 11.011719 L 6.113281 10.195312 L 6.203125 10.289062 L 6.878906 11.011719 L 7.96875 11.011719 L 7.019531 10.054688 L 7.132812 10.046875 C 7.164062 10.042969 7.839844 9.972656 7.839844 9.0625 C 7.839844 8.15625 7.011719 8.058594 6.980469 8.054688 Z M 9.089844 8.078125 C 8.53125 8.078125 8.34375 8.589844 8.34375 8.824219 L 8.34375 11.011719 L 9.074219 11.011719 L 9.074219 10.472656 L 9.96875 10.472656 L 9.96875 11.011719 L 10.671875 11.011719 L 10.671875 8.824219 C 10.671875 8.214844 10.121094 8.078125 9.925781 8.078125 Z M 11.160156 8.078125 L 11.160156 11.011719 L 11.925781 11.011719 L 11.925781 8.078125 Z M 12.386719 8.078125 L 12.386719 11.011719 L 14.324219 11.011719 L 14.324219 10.332031 L 13.152344 10.332031 L 13.152344 8.078125 Z M 15.421875 8.078125 C 15.109375 8.078125 14.671875 8.339844 14.671875 8.835938 L 14.671875 9.105469 C 14.671875 9.613281 15.121094 9.851562 15.421875 9.851562 L 15.804688 9.851562 C 15.863281 9.851562 16.136719 9.851562 16.136719 9.851562 L 16.136719 10.335938 L 14.714844 10.339844 L 14.714844 11.011719 L 16.066406 11.011719 C 16.347656 11.011719 16.796875 10.808594 16.8125 10.265625 L 16.8125 9.964844 C 16.8125 9.496094 16.433594 9.21875 16.066406 9.21875 L 15.3125 9.21875 L 15.3125 8.753906 L 16.703125 8.753906 L 16.703125 8.078125 Z M 4.015625 8.640625 C 3.960938 8.800781 3.921875 8.960938 3.886719 9.113281 L 4.234375 9.390625 C 4.25 9.222656 4.28125 9.054688 4.324219 8.886719 Z M 9.386719 8.695312 L 9.671875 8.695312 C 9.898438 8.695312 9.960938 8.839844 9.964844 8.917969 L 9.964844 9.714844 L 9.070312 9.714844 L 9.070312 8.917969 C 9.070312 8.914062 9.074219 8.695312 9.386719 8.695312 Z M 6.113281 8.71875 L 6.84375 8.71875 C 6.855469 8.722656 7.0625 8.804688 7.0625 9.117188 C 7.0625 9.429688 6.851562 9.515625 6.820312 9.523438 L 6.113281 9.523438 Z M 0.214844 8.8125 C 0.132812 9 0.0429688 9.214844 0 9.328125 L 0.492188 9.507812 C 0.550781 9.363281 0.640625 9.152344 0.707031 8.992188 Z M 3.820312 10.203125 C 3.828125 10.433594 3.851562 10.617188 3.875 10.746094 L 4.390625 10.929688 C 4.351562 10.761719 4.3125 10.574219 4.285156 10.371094 Z M 3.820312 10.203125 "/>
</g>
</svg>
