<?xml version="1.0" encoding="UTF-8"?>
<svg xmlns="http://www.w3.org/2000/svg" xmlns:xlink="http://www.w3.org/1999/xlink" viewBox="0 0 16 16" width="16px" height="16px">
<g id="surface221257003">
<rect x="0" y="0" width="16" height="16" style="fill:rgb(0%,0%,0%);fill-opacity:1;stroke:none;"/>
<path style=" stroke:none;fill-rule:nonzero;fill:rgb(100%,100%,100%);fill-opacity:1;" d="M 7.96875 2.128906 C 7.960938 2.132812 7.949219 2.132812 7.9375 2.132812 L 7.875 2.132812 L 7.824219 2.160156 C 7.777344 2.171875 7.734375 2.195312 7.695312 2.222656 L 5.550781 3.292969 L 3.292969 5.550781 L 2.226562 7.683594 C 2.195312 7.726562 2.171875 7.777344 2.15625 7.828125 L 2.132812 7.875 L 2.132812 7.933594 C 2.128906 7.972656 2.128906 8.015625 2.132812 8.054688 L 2.132812 12.433594 L 2.234375 12.570312 C 2.320312 12.695312 2.421875 12.816406 2.535156 12.929688 C 3.09375 13.484375 3.824219 13.769531 4.628906 13.839844 C 4.683594 13.859375 4.742188 13.867188 4.800781 13.867188 L 13.253906 13.867188 C 13.296875 13.875 13.34375 13.875 13.390625 13.871094 C 13.402344 13.871094 13.417969 13.867188 13.429688 13.867188 L 13.867188 13.867188 L 13.867188 13.425781 C 13.875 13.371094 13.875 13.308594 13.867188 13.253906 L 13.867188 4.800781 C 13.867188 4.742188 13.859375 4.683594 13.839844 4.628906 C 13.769531 3.824219 13.484375 3.09375 12.929688 2.535156 C 12.8125 2.421875 12.691406 2.324219 12.574219 2.234375 L 12.433594 2.132812 L 8.046875 2.132812 C 8.023438 2.128906 7.996094 2.128906 7.96875 2.128906 Z M 9.925781 3.199219 L 12.066406 3.199219 C 12.105469 3.230469 12.144531 3.257812 12.175781 3.292969 C 12.566406 3.683594 12.777344 4.242188 12.796875 4.925781 Z M 7.976562 3.273438 L 8.941406 3.851562 L 8.566406 6.144531 L 6.144531 8.566406 L 3.851562 8.941406 L 3.273438 7.976562 L 4.171875 6.183594 L 6.183594 4.171875 Z M 9.925781 4.445312 L 11.734375 5.527344 L 9.707031 5.78125 Z M 12.550781 6.503906 C 12.238281 7.503906 11.632812 8.59375 10.753906 9.613281 L 9.789062 6.847656 Z M 8.84375 7.378906 L 9.632812 9.632812 L 7.378906 8.84375 Z M 12.800781 8.566406 L 12.800781 12.046875 L 11.324219 10.570312 C 11.914062 9.929688 12.410156 9.253906 12.800781 8.566406 Z M 5.78125 9.707031 L 5.527344 11.734375 L 4.445312 9.925781 Z M 6.847656 9.789062 L 9.613281 10.753906 C 8.59375 11.628906 7.503906 12.238281 6.503906 12.550781 Z M 3.199219 9.925781 L 4.925781 12.796875 C 4.242188 12.777344 3.679688 12.566406 3.289062 12.175781 C 3.257812 12.144531 3.230469 12.105469 3.199219 12.066406 Z M 10.570312 11.324219 L 12.046875 12.800781 L 8.566406 12.800781 C 9.253906 12.410156 9.929688 11.914062 10.570312 11.324219 Z M 10.570312 11.324219 "/>
</g>
</svg>
